PathFileType	4	(X/Y/Z)	C:\Users\WrightLab\Desktop\Jo\P5V22.trc
DataRate	CameraRate	NumFrames	NumMarkers	Units	OrigDataRate	OrigDataStartFrame	OrigNumFrames
100.00	100.00	      21	19	mm	100.00	414	      1103
Frame#	Time	Headset_Front			Headset_Back			Headset_Left			Headset_Right			Left_Shoulder			Right_Shoulder			Sternum			C7			Left Elbow			Right Elbow			Left Wrist			Right Wrist			Left ASIS			Right ASIS			S2			Left Knee			Right Knee			Left Ankle			Right Ankle			
		X1	Y1	Z1	X2	Y2	Z2	X3	Y3	Z3	X4	Y4	Z4	X5	Y5	Z5	X6	Y6	Z6	X7	Y7	Z7	X8	Y8	Z8	X9	Y9	Z9	X10	Y10	Z10	X11	Y11	Z11	X12	Y12	Z12	X13	Y13	Z13	X14	Y14	Z14	X15	Y15	Z15	X16	Y16	Z16	X17	Y17	Z17	X18	Y18	Z18	X19	Y19	Z19	

414	4.130																												-547.03363	1189.51917	-1168.29761				-446.46707	1038.01477	-1016.09406	-102.27638	898.72858	-1109.39917	-377.59497	930.14447	-1067.81592				-53.29645	482.31741	-1157.96179	-426.94177	471.22519	-1101.89954				-404.57462	72.64910	-1228.53418	
415	4.140																												-546.94049	1189.59790	-1168.27515				-446.32440	1038.13574	-1015.98993	-102.23188	899.51465	-1109.02258	-377.61627	930.39398	-1068.11719				-53.30015	482.31491	-1157.96265	-426.81351	471.21237	-1101.62659				-404.58990	72.61350	-1228.59937	
416	4.150																												-546.92517	1189.59705	-1168.28955				-446.22244	1038.20911	-1016.05579	-102.23490	899.51550	-1109.02478	-377.23318	930.00134	-1067.93018				-53.29476	482.32123	-1157.96216	-426.94424	471.22372	-1101.90039				-404.57428	72.65423	-1228.53369	
417	4.160																												-546.81580	1189.63379	-1168.33252				-446.22836	1038.21338	-1016.05908	-102.22039	899.51141	-1109.01453	-377.61615	929.83771	-1067.91711				-53.40018	482.43195	-1157.96106	-426.89346	471.18961	-1101.61646				-404.58282	72.64215	-1228.57202	
418	4.170																												-546.79065	1189.61597	-1168.33484				-446.13455	1038.27173	-1016.14282	-102.23006	898.71545	-1109.36658	-377.63074	930.08459	-1068.22290				-53.39759	482.43103	-1157.95972	-426.71881	470.95068	-1101.56458				-404.59277	72.62090	-1228.61499	
419	4.180																												-546.73242	1189.61646	-1168.32739				-446.12454	1038.29285	-1016.14008	-102.24439	898.71948	-1109.37659	-377.61615	929.83771	-1067.91711				-53.40664	482.42624	-1157.96216	-426.25488	470.91113	-1102.30615				-404.56946	72.64865	-1228.50903	
420	4.190																												-546.63831	1189.77820	-1168.83472				-446.15369	1038.29236	-1016.15411	-102.22927	898.71960	-1109.36609	-377.63074	930.08459	-1068.22290				-53.41701	482.41684	-1157.96399	-426.20596	470.92804	-1101.91248				-404.59744	72.60394	-1228.63330	
421	4.200																												-546.58038	1189.75806	-1168.84167				-446.01703	1038.36279	-1016.72314	-102.19054	899.91656	-1109.61206	-377.53064	930.45044	-1068.81763				-53.43250	482.40363	-1157.96692	-426.42349	471.20358	-1101.62061				-404.58258	72.64558	-1228.57153	
422	4.210																												-546.54309	1189.79749	-1169.25110				-446.02847	1038.36804	-1016.72919	-102.24126	898.72302	-1109.37463	-377.69839	930.10962	-1068.17651				-53.42987	482.40610	-1157.96643	-426.71698	470.95175	-1101.56384				-404.57123	72.64721	-1228.51721	
423	4.220																												-545.17847	1189.09888	-1169.68262				-446.18085	1038.28125	-1016.36987	-102.23059	898.72272	-1109.36719	-377.78970	930.33551	-1068.72180				-53.42833	482.40982	-1157.96692	-426.07825	470.81631	-1101.92896				-404.57599	72.64146	-1228.53894	
424	4.230																												-544.45874	1188.83215	-1170.02710				-446.01874	1038.37769	-1016.72546	-101.93989	898.48450	-1109.24658	-377.60068	930.42682	-1069.06177				-53.44796	482.39209	-1157.97034	-426.80185	471.21918	-1101.62231				-404.59216	72.61816	-1228.61133	
425	4.240																												-544.44226	1188.81287	-1170.02161				-445.68076	1038.37268	-1016.69745	-102.20262	898.72540	-1109.34790	-377.70081	930.06097	-1068.46704				-53.47709	482.36588	-1157.97534	-426.45807	470.94809	-1101.86658				-404.56018	72.65649	-1228.46631	
426	4.250																												-544.43835	1188.80652	-1170.02002				-445.67316	1038.36646	-1016.69318	-101.91264	898.75763	-1110.16724	-377.60068	930.42682	-1069.06177				-53.46949	482.37646	-1157.97510	-426.70541	471.31552	-1101.64832				-404.57935	72.62894	-1228.55212	
427	4.260																												-544.43134	1188.80615	-1170.01855				-445.75189	1038.32532	-1017.08759	-101.91673	898.48309	-1109.23047	-377.60068	930.42682	-1069.06177				-53.30322	482.12695	-1158.25635	-426.94675	471.22226	-1101.90137				-404.57809	72.62178	-1228.54431	
428	4.270																												-544.43274	1188.82300	-1170.02051				-445.77310	1038.33228	-1017.09851	-101.88785	899.12732	-1109.88306	-377.60068	930.42682	-1069.06177				-53.48407	482.36594	-1157.97839	-426.13684	470.75757	-1102.17273				-404.57935	72.62894	-1228.55212	
429	4.280																												-544.44232	1188.82153	-1170.02246				-445.76331	1038.33533	-1017.09412	-101.91824	898.47955	-1109.23145	-377.72382	930.35504	-1069.32715				-53.49195	482.37045	-1157.98315	-426.42819	470.96753	-1102.14746				-404.57941	72.64184	-1228.55542	
430	4.290																												-544.44830	1188.83948	-1170.02551				-446.94110	1039.10510	-1016.28418	-101.93639	898.47473	-1109.24377	-377.33798	930.00037	-1069.44336				-53.74272	482.13821	-1158.40820	-426.93710	471.21396	-1102.41504				-404.59534	72.59749	-1228.62158	
431	4.300																												-544.36298	1188.88635	-1170.17212				-445.77692	1038.34253	-1017.10138	-101.91790	898.76257	-1110.17114	-377.72461	930.38501	-1069.49377				-53.75573	482.12592	-1158.41028	-426.45398	470.93649	-1102.38245				-404.57980	72.63506	-1228.55579	
432	4.310																												-544.36243	1188.87756	-1170.57727				-445.86566	1038.27917	-1017.32703	-101.91064	899.26788	-1108.88062	-377.72461	930.38501	-1069.49377				-53.34577	482.11899	-1158.27258	-426.78879	471.21252	-1102.31799				-404.57053	72.65900	-1228.51672	
433	4.320																												-544.51575	1188.68262	-1170.93835				-445.60919	1038.12634	-1017.55237	-101.94191	898.47736	-1109.24768	-377.72461	930.38501	-1069.49377				-53.52494	482.34869	-1157.99121	-425.92953	470.82626	-1103.25659				-404.57840	72.62979	-1228.54773	
434	4.330																												-544.47534	1188.64941	-1170.92627				-445.89215	1038.31494	-1017.51483	-102.23705	898.71741	-1109.37146	-377.72461	930.38501	-1069.49377				-53.54780	482.33582	-1157.99731	-426.88937	471.10657	-1102.57104				-404.57489	72.64409	-1228.53430	
